<?xml version="1.0" standalone="no"?>
<!DOCTYPE svg PUBLIC "-//W3C//DTD SVG 20010904//EN" "http://www.w3.org/TR/2001/REC-SVG-20010904/DTD/svg10.dtd">
<!-- Created using Krita: https://krita.org -->
<svg xmlns="http://www.w3.org/2000/svg" 
    xmlns:xlink="http://www.w3.org/1999/xlink"
    xmlns:krita="http://krita.org/namespaces/svg/krita"
    xmlns:sodipodi="http://sodipodi.sourceforge.net/DTD/sodipodi-0.dtd"
    width="368.64pt"
    height="368.64pt"
    viewBox="0 0 368.64 368.64">
<defs/>
<circle id="shape0" transform="matrix(0.999999960263572 0 0 0.999999960263572 79.941191943938 403.100650688123)" r="115.2" cx="115.2" cy="115.2" fill="none" stroke="#ffffff" stroke-width="28.8" stroke-linecap="square" stroke-linejoin="bevel"/><path id="shape1" transform="matrix(0.999999960263572 0 0 0.999999960263572 161.279993591309 23.0399990844727)" fill="#ffffff" fill-rule="evenodd" stroke="#ffffff" stroke-width="14.4" stroke-linecap="square" stroke-linejoin="round" d="M0 0L46.08 0L46.08 72.0274L44.171 71.554L41.899 71.0513L39.606 70.6048L37.293 70.2154L34.961 69.8839L32.61 69.6109L30.242 69.3973L27.857 69.2437L25.456 69.1511L23.04 69.12L20.624 69.1511L18.223 69.2437L15.838 69.3973L13.47 69.6109L11.119 69.8839L8.787 70.2154L6.474 70.6048L4.181 71.0513L1.909 71.554L0 72.0274L0 0M46.08 250.533L46.08 322.56L0 322.56L0 250.533L1.909 251.006L4.181 251.509L6.474 251.955L8.787 252.345L11.119 252.676L13.47 252.949L15.838 253.163L18.223 253.316L20.624 253.409L23.04 253.44L25.456 253.409L27.857 253.316L30.242 253.163L32.61 252.949L34.961 252.676L37.293 252.345L39.606 251.955L41.899 251.509L44.171 251.006L46.08 250.533" sodipodi:nodetypes="cccccccccccccccccccccccccccccccccccccccccccccccc"/><path id="shape2" transform="matrix(0.999999960263572 0 0 0.999999960263572 33.1273986836354 83.726796672996)" fill="#ffffff" fill-rule="evenodd" stroke="#ffffff" stroke-width="14.4" stroke-linecap="square" stroke-linejoin="round" d="M279.346 0L302.386 39.9062L240.006 75.9212L239.748 74.9822L239.081 72.7762L238.36 70.5932L237.587 68.4352L236.763 66.3032L235.887 64.1962L234.961 62.1162L233.986 60.0632L232.962 58.0392L231.89 56.0442L230.77 54.0782L229.605 52.1432L228.393 50.2392L227.137 48.3672L225.837 46.5282L224.493 44.7232L223.106 42.9522L221.678 41.2152L220.209 39.5152L218.699 37.8512L217.149 36.2252L216.949 36.0252L279.346 0M85.4366 165.161L23.04 201.186L0 161.28L62.3796 125.265L62.638 126.204L63.3051 128.41L64.0255 130.593L64.7984 132.751L65.623 134.883L66.4986 136.99L67.4246 139.07L68.3996 141.123L69.4236 143.147L70.4956 145.142L71.6156 147.108L72.7806 149.043L73.9926 150.947L75.2486 152.819L76.5486 154.658L77.8926 156.463L79.2796 158.234L80.7076 159.971L82.1766 161.671L83.6866 163.335L85.2366 164.961L85.4366 165.161" sodipodi:nodetypes="cccccccccccccccccccccccccccccccccccccccccccccccccccc"/><path id="shape3" transform="matrix(0.999999960263572 0 0 0.999999960263572 33.1273986836354 83.726796672996)" fill="#ffffff" fill-rule="evenodd" stroke="#ffffff" stroke-width="14.4" stroke-linecap="square" stroke-linejoin="round" d="M23.04 0L0 39.9062L62.3796 75.9212L62.638 74.9822L63.3051 72.7762L64.0255 70.5932L64.7984 68.4352L65.623 66.3032L66.4986 64.1962L67.4246 62.1162L68.3996 60.0632L69.4236 58.0392L70.4956 56.0442L71.6156 54.0782L72.7806 52.1432L73.9926 50.2392L75.2486 48.3672L76.5486 46.5282L77.8926 44.7232L79.2796 42.9522L80.7076 41.2152L82.1766 39.5152L83.6866 37.8512L85.2366 36.2252L85.4366 36.0252L23.04 0M216.949 165.161L279.346 201.186L302.386 161.28L240.006 125.265L239.748 126.204L239.081 128.41L238.36 130.593L237.587 132.751L236.763 134.883L235.887 136.99L234.961 139.07L233.986 141.123L232.962 143.147L231.89 145.142L230.77 147.108L229.605 149.043L228.393 150.947L227.137 152.819L225.837 154.658L224.493 156.463L223.106 158.234L221.678 159.971L220.209 161.671L218.699 163.335L217.149 164.961L216.949 165.161" sodipodi:nodetypes="cccccccccccccccccccccccccccccccccccccccccccccccccccc"/><path id="shape4" transform="matrix(0.999999960263572 0 0 0.999999960263572 69.1199972534181 69.1199972534181)" fill="#ffffff" fill-rule="evenodd" stroke="#ffffff" stroke-width="28.8" stroke-linecap="square" stroke-linejoin="bevel" d="M230.4 115.2L230.361 112.18L230.245 109.178L230.053 106.197L229.786 103.237L229.445 100.299L229.031 97.384L228.544 94.493L227.986 91.626L227.357 88.786L226.66 85.972L225.893 83.186L225.059 80.428L224.159 77.7L223.193 75.003L222.162 72.337L221.067 69.704L219.91 67.104L218.691 64.538L217.411 62.008L216.071 59.513L214.672 57.056L213.215 54.637L211.701 52.258L210.13 49.918L208.505 47.619L206.825 45.362L205.092 43.148L203.306 40.978L201.47 38.853L199.582 36.773L197.645 34.74L195.66 32.755L193.627 30.8178L191.547 28.9305L189.422 27.0936L187.252 25.3081L185.038 23.5751L182.781 21.8953L180.482 20.2697L178.142 18.6994L175.763 17.1852L173.344 15.7282L170.887 14.3292L168.392 12.9891L165.862 11.7091L163.296 10.4899L160.696 9.3325L158.063 8.238L155.397 7.2072L152.7 6.2411L149.972 5.3406L147.214 4.5067L144.428 3.7404L141.614 3.0425L138.774 2.4141L135.907 1.856L133.016 1.3693L130.101 0.9549L127.163 0.6136L124.203 0.3466L121.222 0.1547L118.22 0.0388L115.2 0L112.18 0.0388L109.178 0.1547L106.197 0.3466L103.237 0.6136L100.299 0.9549L97.384 1.3693L94.493 1.856L91.626 2.4141L88.786 3.0425L85.972 3.7404L83.186 4.5067L80.428 5.3406L77.7 6.2411L75.003 7.2072L72.337 8.238L69.704 9.3325L67.104 10.4899L64.538 11.7091L62.008 12.9891L59.513 14.3292L57.056 15.7282L54.637 17.1852L52.258 18.6994L49.918 20.2697L47.619 21.8953L45.362 23.5751L43.148 25.3081L40.978 27.0936L38.853 28.9305L36.773 30.8178L34.74 32.755L32.755 34.74L30.8178 36.773L28.9305 38.853L27.0936 40.978L25.3081 43.148L23.5751 45.362L21.8953 47.619L20.2697 49.918L18.6994 52.258L17.1852 54.637L15.7282 57.056L14.3292 59.513L12.9891 62.008L11.7091 64.538L10.4899 67.104L9.3325 69.704L8.238 72.337L7.2072 75.003L6.2411 77.7L5.3406 80.428L4.5067 83.186L3.7404 85.972L3.0425 88.786L2.4141 91.626L1.856 94.493L1.3693 97.384L0.9549 100.299L0.6136 103.237L0.3466 106.197L0.1547 109.178L0.0388 112.18L0 115.2L0.0388 118.22L0.1547 121.222L0.3466 124.203L0.6136 127.163L0.9549 130.101L1.3693 133.016L1.856 135.907L2.4141 138.774L3.0425 141.614L3.7404 144.428L4.5067 147.214L5.3406 149.972L6.2411 152.7L7.2072 155.397L8.238 158.063L9.3325 160.696L10.4899 163.296L11.7091 165.862L12.9891 168.392L14.3292 170.887L15.7282 173.344L17.1852 175.763L18.6994 178.142L20.2697 180.482L21.8953 182.781L23.5751 185.038L25.3081 187.252L27.0936 189.422L28.9305 191.547L30.8178 193.627L32.755 195.66L34.74 197.645L36.773 199.582L38.853 201.47L40.978 203.306L43.148 205.092L45.362 206.825L47.619 208.505L49.918 210.13L52.258 211.701L54.637 213.215L57.056 214.672L59.513 216.071L62.008 217.411L64.538 218.691L67.104 219.91L69.704 221.067L72.337 222.162L75.003 223.193L77.7 224.159L80.428 225.059L83.186 225.893L85.972 226.66L88.786 227.357L91.626 227.986L94.493 228.544L97.384 229.031L100.299 229.445L103.237 229.786L106.197 230.053L109.178 230.245L112.18 230.361L115.2 230.4L118.22 230.361L121.222 230.245L124.203 230.053L127.163 229.786L130.101 229.445L133.016 229.031L135.907 228.544L138.774 227.986L141.614 227.357L144.428 226.66L147.214 225.893L149.972 225.059L152.7 224.159L155.397 223.193L158.063 222.162L160.696 221.067L163.296 219.91L165.862 218.691L168.392 217.411L170.887 216.071L173.344 214.672L175.763 213.215L178.142 211.701L180.482 210.13L182.781 208.505L185.038 206.825L187.252 205.092L189.422 203.306L191.547 201.47L193.627 199.582L195.66 197.645L197.645 195.66L199.582 193.627L201.47 191.547L203.306 189.422L205.092 187.252L206.825 185.038L208.505 182.781L210.13 180.482L211.701 178.142L213.215 175.763L214.672 173.344L216.071 170.887L217.411 168.392L218.691 165.862L219.91 163.296L221.067 160.696L222.162 158.063L223.193 155.397L224.159 152.7L225.059 149.972L225.893 147.214L226.66 144.428L227.357 141.614L227.986 138.774L228.544 135.907L229.031 133.016L229.445 130.101L229.786 127.163L230.053 124.203L230.245 121.222L230.361 118.22L230.4 115.2M207.36 115.2L207.329 112.784L207.236 110.383L207.083 107.998L206.869 105.63L206.596 103.279L206.265 100.947L205.875 98.634L205.429 96.341L204.926 94.069L204.368 91.817L203.755 89.589L203.088 87.383L202.367 85.2L201.594 83.042L200.77 80.91L199.894 78.803L198.968 76.723L197.993 74.67L196.969 72.646L195.897 70.651L194.777 68.685L193.612 66.75L192.4 64.846L191.144 62.974L189.844 61.135L188.5 59.33L187.113 57.559L185.685 55.822L184.216 54.122L182.706 52.458L181.156 50.832L179.568 49.244L177.942 47.694L176.278 46.184L174.578 44.715L172.841 43.287L171.07 41.9L169.265 40.556L167.426 39.256L165.554 38L163.65 36.788L161.715 35.623L159.749 34.503L157.754 33.431L155.73 32.407L153.677 31.432L151.597 30.506L149.49 29.6304L147.358 28.8058L145.2 28.0329L143.017 27.3125L140.811 26.6454L138.583 26.0323L136.331 25.474L134.059 24.9713L131.766 24.5248L129.453 24.1354L127.121 23.8039L124.77 23.5309L122.402 23.3173L120.017 23.1637L117.616 23.0711L115.2 23.04L112.784 23.0711L110.383 23.1637L107.998 23.3173L105.63 23.5309L103.279 23.8039L100.947 24.1354L98.634 24.5248L96.341 24.9713L94.069 25.474L91.817 26.0323L89.589 26.6454L87.383 27.3125L85.2 28.0329L83.042 28.8058L80.91 29.6304L78.803 30.506L76.723 31.432L74.67 32.407L72.646 33.431L70.651 34.503L68.685 35.623L66.75 36.788L64.846 38L62.974 39.256L61.135 40.556L59.33 41.9L57.559 43.287L55.822 44.715L54.122 46.184L52.458 47.694L50.832 49.244L49.244 50.832L47.694 52.458L46.184 54.122L44.715 55.822L43.287 57.559L41.9 59.33L40.556 61.135L39.256 62.974L38 64.846L36.788 66.75L35.623 68.685L34.503 70.651L33.431 72.646L32.407 74.67L31.432 76.723L30.506 78.803L29.6304 80.91L28.8058 83.042L28.0329 85.2L27.3125 87.383L26.6454 89.589L26.0323 91.817L25.474 94.069L24.9713 96.341L24.5248 98.634L24.1354 100.947L23.8039 103.279L23.5309 105.63L23.3173 107.998L23.1637 110.383L23.0711 112.784L23.04 115.2L23.0711 117.616L23.1637 120.017L23.3173 122.402L23.5309 124.77L23.8039 127.121L24.1354 129.453L24.5248 131.766L24.9713 134.059L25.474 136.331L26.0323 138.583L26.6454 140.811L27.3125 143.017L28.0329 145.2L28.8058 147.358L29.6304 149.49L30.506 151.597L31.432 153.677L32.407 155.73L33.431 157.754L34.503 159.749L35.623 161.715L36.788 163.65L38 165.554L39.256 167.426L40.556 169.265L41.9 171.07L43.287 172.841L44.715 174.578L46.184 176.278L47.694 177.942L49.244 179.568L50.832 181.156L52.458 182.706L54.122 184.216L55.822 185.685L57.559 187.113L59.33 188.5L61.135 189.844L62.974 191.144L64.846 192.4L66.75 193.612L68.685 194.777L70.651 195.897L72.646 196.969L74.67 197.993L76.723 198.968L78.803 199.894L80.91 200.77L83.042 201.594L85.2 202.367L87.383 203.088L89.589 203.755L91.817 204.368L94.069 204.926L96.341 205.429L98.634 205.875L100.947 206.265L103.279 206.596L105.63 206.869L107.998 207.083L110.383 207.236L112.784 207.329L115.2 207.36L117.616 207.329L120.017 207.236L122.402 207.083L124.77 206.869L127.121 206.596L129.453 206.265L131.766 205.875L134.059 205.429L136.331 204.926L138.583 204.368L140.811 203.755L143.017 203.088L145.2 202.367L147.358 201.594L149.49 200.77L151.597 199.894L153.677 198.968L155.73 197.993L157.754 196.969L159.749 195.897L161.715 194.777L163.65 193.612L165.554 192.4L167.426 191.144L169.265 189.844L171.07 188.5L172.841 187.113L174.578 185.685L176.278 184.216L177.942 182.706L179.568 181.156L181.156 179.568L182.706 177.942L184.216 176.278L185.685 174.578L187.113 172.841L188.5 171.07L189.844 169.265L191.144 167.426L192.4 165.554L193.612 163.65L194.777 161.715L195.897 159.749L196.969 157.754L197.993 155.73L198.968 153.677L199.894 151.597L200.77 149.49L201.594 147.358L202.367 145.2L203.088 143.017L203.755 140.811L204.368 138.583L204.926 136.331L205.429 134.059L205.875 131.766L206.265 129.453L206.596 127.121L206.869 124.77L207.083 122.402L207.236 120.017L207.329 117.616L207.36 115.2" sodipodi:nodetypes="cccccccccccccccccccccccccccccccccccccccccccccccccccccccccccccccccccccccccccccccccccccccccccccccccccccccccccccccccccccccccccccccccccccccccccccccccccccccccccccccccccccccccccccccccccccccccccccccccccccccccccccccccccccccccccccccccccccccccccccccccccccccccccccccccccccccccccccccccccccccccccccccccccccccccccccccccccccccccccccccccccccccccccccccccccccccccccccccccccccccccccccccccccccccccccccccccccccccccccccccccccccccccccccccccccccccccccccccccccccccccccccccccccccccccccccccccccccccccccccccccccccccccccccccccccccccccc"/>
</svg>
