<?xml version="1.0" standalone="no"?>
<!DOCTYPE svg PUBLIC "-//W3C//DTD SVG 20010904//EN" "http://www.w3.org/TR/2001/REC-SVG-20010904/DTD/svg10.dtd">
<!-- Created using Krita: https://krita.org -->
<svg xmlns="http://www.w3.org/2000/svg" 
    xmlns:xlink="http://www.w3.org/1999/xlink"
    xmlns:krita="http://krita.org/namespaces/svg/krita"
    xmlns:sodipodi="http://sodipodi.sourceforge.net/DTD/sodipodi-0.dtd"
    width="122.88pt"
    height="122.88pt"
    viewBox="0 0 122.88 122.88">
<defs/>
<path id="shape0" transform="translate(2.8799998102899, 3.60000381001133)" fill="#ffffff" fill-rule="evenodd" stroke="none" stroke-width="2.4" stroke-linecap="square" stroke-linejoin="bevel" d="M58.32 0C25.7208 6.90915 2.00625 22.3327 0 58.56C1.47126 94.8201 26.3359 108.661 58.32 115.68C86.2866 114.795 105.223 106.797 112.08 89.28L81.36 89.28L112.08 24C100.597 12.0386 86.2726 1.82609 58.32 0Z" sodipodi:nodetypes="ccccccc"/><path id="shape1" transform="translate(3.84165194196866, 3.83655378917173)" sodipodi:type="arc" sodipodi:rx="61.4045217670292" sodipodi:ry="57.5977896700102" sodipodi:cx="61.4045217671081" sodipodi:cy="57.6023672737872" sodipodi:start="0.580326479245932" sodipodi:end="5.70289103627027" sodipodi:open="true" d="M112.757 26.0232C97.8737 4.72816 69.8493 -4.87278 43.8376 2.41193C17.8259 9.69664 0.000437177 32.138 8.04134e-09 57.6014C-0.000437161 83.0648 17.8242 105.507 43.8357 112.792C69.8471 120.078 97.8719 110.478 112.756 89.1831" fill="none" stroke="#000000" stroke-width="7.68" stroke-linecap="round" stroke-linejoin="round"/><path id="shape2" transform="translate(26.0399982811269, 4.8304794965091)" fill="none" stroke="#000000" stroke-width="7.68" stroke-linecap="round" stroke-linejoin="bevel" d="M39.24 0.17952C27.3668 -0.95022 12.606 3.30927 6.17887 11.3467C-0.248221 19.3842 -1.82077 31.1987 2.21328 41.1401C6.24733 51.0814 10.5033 56.4285 23.0784 56.5571C35.6535 56.6858 45.7696 68.7884 45.6973 83.6175C45.625 98.4467 29.1355 113.891 17.52 110.37" sodipodi:nodetypes="cccccc"/><path id="shape3" transform="translate(66.719999905145, 7.68)" fill="none" stroke="#000000" stroke-width="7.68" stroke-linecap="round" stroke-linejoin="round" d="M0 0L17.76 84.48L50.28 23.04" sodipodi:nodetypes="ccc"/><path id="shape4" transform="translate(84.48, 92.16)" fill="none" stroke="#000000" stroke-width="7.68" stroke-linecap="round" stroke-linejoin="round" d="M32.64 0L0 0" sodipodi:nodetypes="cc"/>
</svg>
